HIERARCHY
ROOT hip
{
  OFFSET 0.00112043 5.09927 -9.65472
  CHANNELS 6 Xposition Yposition Zposition Zrotation Xrotation Yrotation
  JOINT abdomen
  {
    OFFSET 0 -1.186 -1.5018
    CHANNELS 3 Zrotation Xrotation Yrotation
    JOINT abdomen2
    {
      OFFSET 0 9.964 0.2134
      CHANNELS 3 Zrotation Xrotation Yrotation
      JOINT chest
      {
        OFFSET 0 13.134 -3.2573
        CHANNELS 3 Zrotation Xrotation Yrotation
        JOINT neck
        {
          OFFSET 0 20.686 -1.6905
          CHANNELS 3 Zrotation Xrotation Yrotation
          JOINT head
          {
            OFFSET 0 7.238 -0.1237
            CHANNELS 3 Zrotation Xrotation Yrotation
            End Site
            {
              OFFSET 0 0 0
            }
          }
        }
        JOINT lCollar
        {
          OFFSET 1.7069 20.075 5.0056
          CHANNELS 3 Zrotation Xrotation Yrotation
          JOINT lShldr
          {
            OFFSET 13.6458 -0.047 -4.849
            CHANNELS 3 Zrotation Xrotation Yrotation
            JOINT lForeArm
            {
              OFFSET 28.3255 -0.9759 2.2888
              CHANNELS 3 Zrotation Xrotation Yrotation
              JOINT lHand
              {
                OFFSET 22.1583 -0.53 10.8316
                CHANNELS 3 Zrotation Xrotation Yrotation
                JOINT lThumb1
                {
                  OFFSET 0.786 0.112 2.5817
                  CHANNELS 3 Zrotation Xrotation Yrotation
                  JOINT lThumb2
                  {
                    OFFSET 0.3601 -0.878 4.2331
                    CHANNELS 3 Zrotation Xrotation Yrotation
                    JOINT lThumb2_End
                    {
                      OFFSET 1.8127 -1.216 2.2227
                      CHANNELS 3 Zrotation Xrotation Yrotation
                      End Site
                      {
                        OFFSET 0.0181 -0.0122 0.0222
                      }
                    }
                  }
                }
                JOINT lCarpal1
                {
                  OFFSET 0.9571 1.114 1.7695
                  CHANNELS 3 Zrotation Xrotation Yrotation
                  JOINT lIndex1
                  {
                    OFFSET 4.1246 0.487 4.1451
                    CHANNELS 3 Zrotation Xrotation Yrotation
                    JOINT lIndex2
                    {
                      OFFSET 3.4052 -1.454 2.7682
                      CHANNELS 3 Zrotation Xrotation Yrotation
                      JOINT lIndex2_End
                      {
                        OFFSET 1.4531 -1.795 1.2713
                        CHANNELS 3 Zrotation Xrotation Yrotation
                        End Site
                        {
                          OFFSET 0.0145 -0.0179 0.0127
                        }
                      }
                    }
                  }
                  JOINT lMid1
                  {
                    OFFSET 5.6954 0.21 2.1184
                    CHANNELS 3 Zrotation Xrotation Yrotation
                    JOINT lMid2
                    {
                      OFFSET 3.9766 -1.54 2.3863
                      CHANNELS 3 Zrotation Xrotation Yrotation
                      JOINT lMid2_End
                      {
                        OFFSET 1.4042 -1.926 1.125
                        CHANNELS 3 Zrotation Xrotation Yrotation
                        End Site
                        {
                          OFFSET 0.014 -0.0193 0.0113
                        }
                      }
                    }
                  }
                }
                JOINT lCarpal2
                {
                  OFFSET 2.0956 0.66 -0.3894
                  CHANNELS 3 Zrotation Xrotation Yrotation
                  JOINT lRing1
                  {
                    OFFSET 5.0395 -0.09 2.4971
                    CHANNELS 3 Zrotation Xrotation Yrotation
                    JOINT lRing2
                    {
                      OFFSET 3.7921 -1.552 1.4806
                      CHANNELS 3 Zrotation Xrotation Yrotation
                      JOINT lRing2_End
                      {
                        OFFSET 1.4655 -1.808 0.9609
                        CHANNELS 3 Zrotation Xrotation Yrotation
                        End Site
                        {
                          OFFSET 0.0147 -0.0181 0.0096
                        }
                      }
                    }
                  }
                  JOINT lPinky1
                  {
                    OFFSET 4.9141 -1.269 0.3591
                    CHANNELS 3 Zrotation Xrotation Yrotation
                    JOINT lPinky2
                    {
                      OFFSET 3.1477 -1.685 0.8462
                      CHANNELS 3 Zrotation Xrotation Yrotation
                      JOINT lPinky2_End
                      {
                        OFFSET 0.8055 -1.585 0.7955
                        CHANNELS 3 Zrotation Xrotation Yrotation
                        End Site
                        {
                          OFFSET 0.0081 -0.0158 0.008
                        }
                      }
                    }
                  }
                }
              }
            }
          }
        }
        JOINT rCollar
        {
          OFFSET -1.7069 20.075 5.0056
          CHANNELS 3 Zrotation Xrotation Yrotation
          JOINT rShldr
          {
            OFFSET -13.6458 -0.047 -4.849
            CHANNELS 3 Zrotation Xrotation Yrotation
            JOINT rForeArm
            {
              OFFSET -28.3255 -0.9759 2.2888
              CHANNELS 3 Zrotation Xrotation Yrotation
              JOINT rHand
              {
                OFFSET -22.1583 -0.53 10.8316
                CHANNELS 3 Zrotation Xrotation Yrotation
                JOINT rThumb1
                {
                  OFFSET -0.786 0.112 2.5817
                  CHANNELS 3 Zrotation Xrotation Yrotation
                  JOINT rThumb2
                  {
                    OFFSET -0.3601 -0.878 4.2331
                    CHANNELS 3 Zrotation Xrotation Yrotation
                    JOINT rThumb2_End
                    {
                      OFFSET -1.8127 -1.216 2.2227
                      CHANNELS 3 Zrotation Xrotation Yrotation
                      End Site
                      {
                        OFFSET -0.0181 -0.0122 0.0222
                      }
                    }
                  }
                }
                JOINT rCarpal1
                {
                  OFFSET -0.9571 1.114 1.7695
                  CHANNELS 3 Zrotation Xrotation Yrotation
                  JOINT rIndex1
                  {
                    OFFSET -4.1246 0.487 4.1451
                    CHANNELS 3 Zrotation Xrotation Yrotation
                    JOINT rIndex2
                    {
                      OFFSET -3.4052 -1.454 2.7682
                      CHANNELS 3 Zrotation Xrotation Yrotation
                      JOINT rIndex2_End
                      {
                        OFFSET -1.4531 -1.795 1.2713
                        CHANNELS 3 Zrotation Xrotation Yrotation
                        End Site
                        {
                          OFFSET -0.0145 -0.018 0.0127
                        }
                      }
                    }
                  }
                  JOINT rMid1
                  {
                    OFFSET -5.6954 0.21 2.1184
                    CHANNELS 3 Zrotation Xrotation Yrotation
                    JOINT rMid2
                    {
                      OFFSET -3.9766 -1.54 2.3863
                      CHANNELS 3 Zrotation Xrotation Yrotation
                      JOINT rMid2_End
                      {
                        OFFSET -1.4042 -1.926 1.125
                        CHANNELS 3 Zrotation Xrotation Yrotation
                        End Site
                        {
                          OFFSET -0.014 -0.0193 0.0113
                        }
                      }
                    }
                  }
                }
                JOINT rCarpal2
                {
                  OFFSET -2.0956 0.66 -0.3894
                  CHANNELS 3 Zrotation Xrotation Yrotation
                  JOINT rRing1
                  {
                    OFFSET -5.0395 -0.09 2.4971
                    CHANNELS 3 Zrotation Xrotation Yrotation
                    JOINT rRing2
                    {
                      OFFSET -3.7921 -1.552 1.4806
                      CHANNELS 3 Zrotation Xrotation Yrotation
                      JOINT rRing2_End
                      {
                        OFFSET -1.4655 -1.808 0.9609
                        CHANNELS 3 Zrotation Xrotation Yrotation
                        End Site
                        {
                          OFFSET -0.0147 -0.0181 0.0096
                        }
                      }
                    }
                  }
                  JOINT rPinky1
                  {
                    OFFSET -4.9141 -1.269 0.3592
                    CHANNELS 3 Zrotation Xrotation Yrotation
                    JOINT rPinky2
                    {
                      OFFSET -3.1477 -1.685 0.8462
                      CHANNELS 3 Zrotation Xrotation Yrotation
                      JOINT rPinky2_End
                      {
                        OFFSET -0.8055 -1.585 0.7955
                        CHANNELS 3 Zrotation Xrotation Yrotation
                        End Site
                        {
                          OFFSET -0.0081 -0.0158 0.008
                        }
                      }
                    }
                  }
                }
              }
            }
          }
        }
      }
    }
  }
  JOINT lThigh
  {
    OFFSET 8.367 -8.2066 0.5982
    CHANNELS 3 Zrotation Xrotation Yrotation
    JOINT lShin
    {
      OFFSET 2.1923 -43.463 -0.4932
      CHANNELS 3 Zrotation Xrotation Yrotation
      JOINT lFoot
      {
        OFFSET 0.7333 -45.8593 -2.6451
        CHANNELS 3 Zrotation Xrotation Yrotation
        End Site
        {
          OFFSET 2.6618 -4.2699 12.3931
        }
      }
    }
  }
  JOINT rThigh
  {
    OFFSET -8.367 -8.2066 0.5982
    CHANNELS 3 Zrotation Xrotation Yrotation
    JOINT rShin
    {
      OFFSET -2.1923 -43.463 -0.4931
      CHANNELS 3 Zrotation Xrotation Yrotation
      JOINT rFoot
      {
        OFFSET -0.7333 -45.8593 -2.6451
        CHANNELS 3 Zrotation Xrotation Yrotation
        End Site
        {
          OFFSET -2.6618 -4.2699 12.3931
        }
      }
    }
  }
}
MOTION
Frames:	6
Frame Time:	0.0333333
0 91.7903 2.51682 0 0 -0 0 0 -0 0 0 -0 0 0 -0 0 0 -0 0 0 -0 0 0 -0 1.66051 0.0835086 5.75766 -0.0175111 0.895433 15.7816 7.95139e-016 -1.98785e-016 -0 5.46658e-016 -3.97569e-016 -0 5.96354e-016 0 -0 3.97569e-016 1.98785e-016 9.54166e-015 1.49089e-016 -3.97569e-016 -0 6.4605e-016 0 3.18055e-015 5.96354e-016 0 3.18055e-015 8.94531e-016 -1.98785e-016 6.36111e-015 6.4605e-016 0 3.18055e-015 5.96354e-016 0 3.18055e-015 8.94531e-016 -1.98785e-016 6.36111e-015 1.49089e-016 -3.97569e-016 -0 6.4605e-016 0 3.18055e-015 5.96354e-016 0 3.18055e-015 8.94531e-016 -1.98785e-016 6.36111e-015 6.4605e-016 0 3.18055e-015 5.96354e-016 0 3.18055e-015 8.94531e-016 -1.98785e-016 6.36111e-015 0 0 -0 -1.4496 0.0636048 -5.0245 -1.74811 1.20616 -16.8394 -1.19271e-015 1.98785e-016 -3.18055e-015 -3.97569e-016 1.98785e-016 -3.18055e-015 -2.98177e-016 1.98785e-016 -3.18055e-015 -2.98177e-016 3.97569e-016 -0 4.96962e-016 0 -6.36111e-015 -9.93923e-017 3.97569e-016 -0 -8.94531e-016 5.96354e-016 -0 -3.97569e-016 3.97569e-016 -0 -9.93923e-017 3.97569e-016 -0 -8.94531e-016 5.96354e-016 -0 -3.97569e-016 3.97569e-016 -0 4.96962e-016 0 -6.36111e-015 -9.93923e-017 3.97569e-016 -0 -8.94531e-016 5.96354e-016 -0 -3.97569e-016 3.97569e-016 -0 -9.93923e-017 3.97569e-016 -0 -8.94531e-016 5.96354e-016 -0 -3.97569e-016 3.97569e-016 -0 -4.66111 -0.998717 0.12318 0.00986924 1.54847 0.176523 4.65186 -0.572283 -0.254274 4.66111 -0.998765 -0.123176 -0.00986867 1.54869 -0.176537 -4.65186 -0.572453 0.25427 
46.3717 26.1606 30.7226 -168.753 62.6767 1.4512e-006 -0.0264832 8.60109 -0.090695 -0.0397092 17.2023 -0.180414 -0.0397096 17.2023 -0.180414 -8.64149e-006 14.8207 5.24253e-006 5.02691e-006 0.128061 -1.16659e-006 -18.2889 -1.45187 -2.14975 -46.1136 58.6237 6.79633 18.5786 34.5521 -6.79726 -0.390547 -6.07473 -1.26905 -1.19271e-015 -1.19271e-015 -9.54166e-015 -5.21272e-008 9.29959e-008 4.89331e-009 -3.97569e-016 1.78906e-015 3.18055e-015 -7.95139e-016 1.98785e-016 -3.18055e-015 -2.38542e-015 1.98785e-016 3.18055e-015 -5.21272e-008 9.29959e-008 4.89331e-009 3.97569e-016 -7.95139e-016 6.36111e-015 -2.38542e-015 1.98785e-016 3.18055e-015 -5.21272e-008 9.29959e-008 4.89331e-009 3.97569e-016 -7.95139e-016 6.36111e-015 -7.95139e-016 1.98785e-016 -3.18055e-015 -2.38542e-015 1.98785e-016 3.18055e-015 -5.21272e-008 9.29959e-008 4.89331e-009 3.97569e-016 -7.95139e-016 6.36111e-015 -2.38542e-015 1.98785e-016 3.18055e-015 -5.21272e-008 9.29959e-008 4.89331e-009 3.97569e-016 -7.95139e-016 6.36111e-015 11.4506 -2.20041 1.43349 55.5816 58.4609 -6.26336 -21.2453 33.6151 11.7053 0.0981708 -3.4582 -5.32467 2.9441e-006 3.34181e-007 -1.43668e-005 8.15759e-007 1.47384e-006 2.3766e-007 2.42324e-006 -1.76706e-007 -3.34074e-006 1.78906e-015 1.19271e-015 -0 2.9441e-006 3.34181e-007 -1.43668e-005 8.15759e-007 1.47384e-006 2.3766e-007 2.42324e-006 -1.76706e-007 -3.34074e-006 2.9441e-006 3.34181e-007 -1.43668e-005 8.15759e-007 1.47384e-006 2.3766e-007 2.42324e-006 -1.76706e-007 -3.34074e-006 1.78906e-015 1.19271e-015 -0 2.9441e-006 3.34181e-007 -1.43668e-005 8.15759e-007 1.47384e-006 2.3766e-007 2.42324e-006 -1.76706e-007 -3.34074e-006 2.9441e-006 3.34181e-007 -1.43668e-005 8.15759e-007 1.47384e-006 2.3766e-007 2.42324e-006 -1.76706e-007 -3.34074e-006 77.5219 -73.196 108.754 3.7233 35.7088 -44.8751 23.7081 0.986625 4.94608 -69.8511 -73.8153 -101.622 -3.18433 31.8609 45.0035 -23.0074 2.48899 -4.74345 
42.3213 28.444 29.0657 179.997 58.9947 3.2456e-011 -0.0269184 8.28838 -0.0845007 -0.0420012 16.5768 -0.167696 -0.0420013 16.5768 -0.167696 2.92695e-006 13.7633 -6.74571e-007 2.56494e-008 0.120051 6.23023e-008 -16.2089 -1.8999 -2.44045 -43.852 55.1705 6.55672 16.6313 32.8835 -4.95879 -0.320957 -6.20333 -0.90434 7.95139e-016 -3.97569e-016 6.36111e-015 -3.97569e-016 3.97569e-016 6.36111e-015 8.82781e-032 -7.95139e-016 6.36111e-015 1.59028e-015 3.97569e-016 6.36111e-015 7.95139e-016 1.19271e-015 2.22639e-014 -0 0 3.18055e-015 -2.64834e-031 1.59028e-015 9.54166e-015 7.95139e-016 1.19271e-015 2.22639e-014 -0 0 3.18055e-015 -2.64834e-031 1.59028e-015 9.54166e-015 1.59028e-015 3.97569e-016 6.36111e-015 7.95139e-016 1.19271e-015 2.22639e-014 -0 0 3.18055e-015 -2.64834e-031 1.59028e-015 9.54166e-015 7.95139e-016 1.19271e-015 2.22639e-014 -0 0 3.18055e-015 -2.64834e-031 1.59028e-015 9.54166e-015 9.88578 -2.71263 1.73982 52.6862 55.0251 -6.02909 -19.0918 32.1649 9.46754 0.101961 -3.70371 -5.29078 -1.66979e-014 1.78906e-014 1.27222e-014 -2.21756e-007 3.31427e-007 -6.13243e-006 -7.95139e-016 -3.18055e-015 6.36111e-015 -7.95139e-016 -1.19271e-015 9.54166e-015 -1.66979e-014 1.82882e-014 1.27222e-014 -2.21756e-007 3.31427e-007 -6.13243e-006 -7.95139e-016 -3.18055e-015 -6.36111e-015 -1.66979e-014 1.82882e-014 1.27222e-014 -2.21756e-007 3.31427e-007 -6.13243e-006 -7.95139e-016 -3.18055e-015 -6.36111e-015 -7.95139e-016 -1.19271e-015 9.54166e-015 -1.66979e-014 1.82882e-014 1.27222e-014 -2.21756e-007 3.31427e-007 -6.13243e-006 -7.95139e-016 -3.18055e-015 -6.36111e-015 -1.66979e-014 1.82882e-014 1.27222e-014 -2.21756e-007 3.31427e-007 -6.13243e-006 -7.95139e-016 -3.18055e-015 -6.36111e-015 55.4958 -75.2533 86.3698 1.58272 32.7779 -41.5425 22.3547 1.76663 4.68204 -55.1109 -75.4184 -86.0227 -1.57836 32.7858 41.5324 -22.5955 1.78272 -4.78031 
42.3312 28.4448 29.057 179.997 58.9947 3.2456e-011 -0.0275218 8.47141 -0.0842621 -0.0430024 16.9428 -0.167148 -0.0430023 16.9428 -0.167148 1.20428e-006 13.5884 -2.69365e-007 6.59351e-008 0.119591 6.12508e-008 -15.2656 -2.41093 -2.82619 -44.5411 55.1592 6.51669 16.6313 32.8835 -4.9588 -0.281512 -6.65945 -0.636441 7.95139e-016 -2.38542e-015 6.36111e-015 7.95139e-016 -3.97569e-016 6.36111e-015 -0 -1.59028e-015 -0 7.95139e-016 -7.95139e-016 6.36111e-015 3.97569e-016 3.97569e-016 1.59028e-014 3.97569e-016 -1.98785e-015 -0 8.82781e-032 -1.59028e-015 3.18055e-015 3.97569e-016 3.97569e-016 1.59028e-014 3.97569e-016 -1.98785e-015 -0 8.82781e-032 -1.59028e-015 3.18055e-015 7.95139e-016 -7.95139e-016 6.36111e-015 3.97569e-016 3.97569e-016 1.59028e-014 3.97569e-016 -1.98785e-015 -0 8.82781e-032 -1.59028e-015 3.18055e-015 3.97569e-016 3.97569e-016 1.59028e-014 3.97569e-016 -1.98785e-015 -0 8.82781e-032 -1.59028e-015 3.18055e-015 9.04962 -3.32484 2.10001 53.2992 55.022 -6.01386 -19.0918 32.1649 9.46754 0.0935874 -4.13267 -5.55377 -7.95139e-016 -2.5842e-014 -0 5.73808e-030 -2.5842e-014 1.27222e-014 -7.95139e-016 -2.5842e-014 6.36111e-015 -1.59028e-015 3.97569e-016 -9.54166e-015 7.95139e-016 -2.50469e-014 3.18055e-015 5.82636e-030 -2.62396e-014 1.27222e-014 -1.59028e-015 -2.50469e-014 6.36111e-015 7.95139e-016 -2.50469e-014 3.18055e-015 5.82636e-030 -2.62396e-014 1.27222e-014 -1.59028e-015 -2.50469e-014 6.36111e-015 -1.59028e-015 3.97569e-016 -9.54166e-015 7.95139e-016 -2.50469e-014 3.18055e-015 5.82636e-030 -2.62396e-014 1.27222e-014 -1.59028e-015 -2.50469e-014 6.36111e-015 7.95139e-016 -2.50469e-014 3.18055e-015 5.82636e-030 -2.62396e-014 1.27222e-014 -1.59028e-015 -2.50469e-014 6.36111e-015 55.0978 -75.4705 85.9959 1.58103 32.7609 -41.5566 22.6104 1.78077 4.80675 -54.3509 -75.7769 -85.3107 -1.57642 32.7671 41.55 -23.0179 1.8204 -4.97122 
42.3411 28.4457 29.0483 179.997 58.9947 3.2456e-011 -0.028128 8.65487 -0.0840169 -0.0440121 17.3097 -0.166584 -0.0440121 17.3097 -0.166584 6.8912e-006 13.4126 -1.89475e-006 -5.34394e-009 0.119132 4.10445e-008 -14.3246 -2.9286 -3.20389 -45.2303 55.1482 6.47649 16.6313 32.8835 -4.95879 -0.239878 -7.11546 -0.367923 -1.76556e-031 1.59028e-015 6.36111e-015 -1.84955e-007 3.8427e-007 -1.56611e-008 7.95139e-016 3.97569e-016 6.36111e-015 -4.41391e-032 3.97569e-016 6.36111e-015 7.95139e-016 1.19271e-015 1.90833e-014 -1.84955e-007 3.8427e-007 -1.56611e-008 3.97569e-016 3.97569e-016 6.36111e-015 7.95139e-016 1.19271e-015 1.90833e-014 -1.84955e-007 3.8427e-007 -1.56611e-008 3.97569e-016 3.97569e-016 6.36111e-015 -4.41391e-032 3.97569e-016 6.36111e-015 7.95139e-016 1.19271e-015 1.90833e-014 -1.84955e-007 3.8427e-007 -1.56611e-008 3.97569e-016 3.97569e-016 6.36111e-015 7.95139e-016 1.19271e-015 1.90833e-014 -1.84955e-007 3.8427e-007 -1.56611e-008 3.97569e-016 3.97569e-016 6.36111e-015 8.21619 -3.94262 2.45169 53.9123 55.0191 -5.99862 -19.0918 32.1649 9.46756 0.0832324 -4.56166 -5.817 -7.95139e-016 1.59028e-015 -6.36111e-015 7.95139e-016 7.95139e-016 -9.54166e-015 -1.59028e-015 0 -3.18055e-015 7.95139e-016 1.59028e-015 -6.36111e-015 7.95139e-016 0 -0 7.95139e-016 0 -0 -0 -7.95139e-016 -0 7.95139e-016 0 -0 7.95139e-016 0 -0 -0 -7.95139e-016 -0 7.95139e-016 1.59028e-015 -6.36111e-015 7.95139e-016 0 -0 7.95139e-016 0 -0 -0 -7.95139e-016 -0 7.95139e-016 0 -0 7.95139e-016 0 -0 -0 -7.95139e-016 -0 54.6902 -75.687 85.6124 1.57941 32.7449 -41.5706 22.8664 1.79511 4.93142 -53.555 -76.133 -84.5625 -1.57453 32.7492 41.5676 -23.4405 1.85932 -5.16185 
42.351 28.4465 29.0398 179.997 58.9947 3.2456e-011 -0.028736 8.83857 -0.0837654 -0.0450295 17.6772 -0.166003 -0.0450295 17.6772 -0.166003 2.68013e-006 13.2381 -5.31968e-007 -3.57e-008 0.118674 -5.23211e-008 -13.3861 -3.45263 -3.5734 -45.9194 55.1374 6.43602 16.6313 32.8835 -4.9588 -0.19604 -7.57132 -0.0987298 -1.8365e-007 3.84896e-007 -1.5651e-008 1.66979e-014 2.14687e-014 3.18055e-015 1.66979e-014 2.06736e-014 6.36111e-015 -1.59028e-015 0 -3.18055e-015 -1.8365e-007 3.84896e-007 -1.56509e-008 1.78906e-014 2.14687e-014 3.18055e-015 1.78906e-014 2.14687e-014 6.36111e-015 -1.8365e-007 3.84896e-007 -1.56509e-008 1.78906e-014 2.14687e-014 3.18055e-015 1.78906e-014 2.14687e-014 6.36111e-015 -1.59028e-015 0 -3.18055e-015 -1.8365e-007 3.84896e-007 -1.56509e-008 1.78906e-014 2.14687e-014 3.18055e-015 1.78906e-014 2.14687e-014 6.36111e-015 -1.8365e-007 3.84896e-007 -1.56509e-008 1.78906e-014 2.14687e-014 3.18055e-015 1.78906e-014 2.14687e-014 6.36111e-015 7.3855 -4.56574 2.79477 54.5254 55.0162 -5.98329 -19.0918 32.1649 9.46755 0.0708908 -4.99064 -6.08051 1.59028e-015 1.59028e-015 -6.36111e-015 3.06423e-007 -8.97517e-008 3.16921e-007 2.05997e-008 3.09729e-007 -3.23625e-006 7.95139e-016 0 -6.36111e-015 2.38542e-015 1.59028e-015 -0 3.06423e-007 -8.97517e-008 3.16921e-007 2.05997e-008 3.09729e-007 -3.23625e-006 2.38542e-015 1.59028e-015 -0 3.06423e-007 -8.97517e-008 3.16921e-007 2.05997e-008 3.09729e-007 -3.23625e-006 7.95139e-016 0 -6.36111e-015 2.38542e-015 1.59028e-015 -0 3.06423e-007 -8.97517e-008 3.16921e-007 2.05997e-008 3.09729e-007 -3.23625e-006 2.38542e-015 1.59028e-015 -0 3.06423e-007 -8.97517e-008 3.16921e-007 2.05997e-008 3.09729e-007 -3.23625e-006 54.2717 -75.9028 85.218 1.57783 32.7295 -41.5846 23.1225 1.80981 5.05605 -52.7195 -76.4865 -83.7747 -1.57267 32.7317 41.5852 -23.8631 1.89962 -5.35215 
